<?xml version="1.0" encoding="utf-8"?>
<!-- Generator: Adobe Illustrator 22.0.1, SVG Export Plug-In . SVG Version: 6.00 Build 0)  -->
<svg version="1.1" id="Layer_2" xmlns="http://www.w3.org/2000/svg" xmlns:xlink="http://www.w3.org/1999/xlink" x="0px" y="0px"
	 viewBox="0 0 4096 722.8" style="enable-background:new 0 0 4096 722.8;" xml:space="preserve">
<style type="text/css">
	.st0{display:none;}
	.st1{fill:#FFFFFF;stroke:#000000;stroke-width:2;stroke-miterlimit:10;}
</style>
<g id="Layer_2">
	<g>
		<path class="st0" d="M3638.4,362.7c-35.5-39-46.3-84.1-32.2-134.2c8.6-30.7,28.5-53.8,54.4-71.5c48.4-33,116.7-28.3,161.5,11.5
			c28.5,25.2,44,56.9,45.3,95.5c1.3,38.3-12.8,70.5-40.3,100.8c3.4,2,6.4,3.1,8.6,5.1c24.6,21.7,45.2,46.3,53.7,78.9
			c19.5,74.5-4.8,148.5-77.2,188.9c-86.1,48.1-198.9,10.6-232.1-89.4c-22.4-67.3-5.8-127.8,48.2-176.2
			C3631.4,369.5,3634.2,366.7,3638.4,362.7z M3639.4,496.7c0,52.2,41.5,93.8,93.8,93.9c51.3,0.1,93.7-42.4,94.6-93.2
			c1-51.5-44.1-96.2-93.5-96.2C3682.8,401.2,3639.4,445.1,3639.4,496.7z M3799.9,268c0-34.8-30.5-65.2-65.5-65.2
			c-35.5,0-66.3,30.5-66.2,65.6c0.1,35.6,30.7,64.7,68.7,65.2C3769.6,334,3800,302.4,3799.9,268z"/>
		<path class="st0" d="M3332.6,278c64.6-46.7,128.9-93.2,194.3-140.5c0.8,3.9,1.4,5.5,1.4,7.2c0,165.7-0.1,331.5-0.2,497.2
			c0,10-0.6,10.6-10.4,10.6c-16-0.1-32,0-48,0c-8.9,0-10.6-1.8-10.6-11.2c0-67.8,0-135.7,0-203.5c0-47.7,0.2-95.3,0.4-143
			c0-5.6-4.6-8.7-9.4-5.9c-14.4,8.7-28.7,17.6-43.1,26.4c-10.8,6.6-21.6,13.3-32.7,19.6c-1.3,0.8-4.9,0-5.7-1.1
			C3356.8,315.6,3345.1,297.4,3332.6,278z"/>
		<polygon points="143,116.4 143,651.5 225.2,651.5 225.2,377.3 426,663.5 626.9,377.3 626.9,651.5 709.1,651.5 709.1,116.4 
			426,520.4 		"/>
		<rect x="763.9" y="243.7" width="67" height="407.8"/>
		<polygon points="1171.7,510.1 885.6,237.9 885.6,651.5 949.5,651.5 949.5,387.9 1235.6,660.1 1235.6,243.7 1171.7,243.7 		"/>
		<path d="M1380.2,243.7h-111.1v407.8h111.1c56.3,0,104.5-20.1,144.7-60.3c40-40,60-88.1,60-144.4c0-56.3-20-103.8-60-143.8
			C1484.7,263.1,1436.5,243.7,1380.2,243.7z M1479.1,546.1c-27.4,27.4-60.4,41.5-99,41.5H1336v-280h44.1c38.6,0,71.5,13.4,99,40.8
			c27.4,27.4,41.2,60.3,41.2,98.7C1520.3,485.7,1506.6,518.7,1479.1,546.1z"/>
		<path d="M1885.5,389.3c-18.3-14.4-52.1-27.5-101.3-39.1c-28.1-6.6-47.5-13.6-58-20.9c-17.6-11.9-26.4-30.2-26.4-54.9
			c0-20.6,7.3-38.2,22-52.9c14.6-14.6,32.3-22,52.9-22c14.2,0,27.2,3.7,39.1,11c11.9,7.3,21.1,17.3,27.5,29.9l73.5-37.1
			c-13.5-26.3-32.8-47.3-58-62.8c-25.2-15.6-52.5-23.3-82-23.3c-43.5,0-80.6,15.3-111.2,46c-30.7,30.7-46,67.7-46,111.2
			c0,53.8,15.4,92.7,46.3,116.7c18.3,14.4,52.1,27.5,101.3,39.1c28.1,6.6,47.5,13.6,58,20.9c17.4,11.9,26.1,30.2,26.1,54.9
			c0,18.8-7.9,35.6-23.7,50.5c-17.4,16-37.3,24-59.7,24c-19.5,0-37.5-6.2-54.2-18.5c-15.3-11.4-24.6-24.8-27.8-40.2l-80.7,17.2
			c7.6,35.5,27.3,65.1,59.4,88.9c31.1,23.3,65.6,35,103.3,35c43.9,0,82.5-15.3,115.7-46c33.6-31.1,50.5-68.1,50.5-110.9
			C1931.8,452.2,1916.4,413.3,1885.5,389.3z"/>
		<path d="M2215,381.2c0-38.2-13.6-70.3-40.9-97.5c-27.1-27.1-59.7-40-97.9-40h-125.4v407.8h67V520.7h58.5c38.2,0,70.8-14,97.9-41.1
			C2201.4,452.5,2215,419.4,2215,381.2z M2128.7,432.7c-14.5,14.5-32,21.1-52.5,21.1h-58.5V307.6h58.5c20.4,0,37.9,6.9,52.5,21.5
			c14.5,14.5,21.8,31.5,21.8,51.9C2150.4,401.3,2143.2,418.1,2128.7,432.7z"/>
		<path d="M2165.1,651.5h69.9l32.3-76.1h151.2l32.3,76.1h70.2l-178.1-417.7L2165.1,651.5z M2292.8,514.6l50-117.3l50,117.3H2292.8z"
			/>
		<path d="M2757.7,479.4c27.3-27.1,40.9-59.8,40.9-98.2c0-38.2-13.6-70.3-40.9-97.5c-27.3-27.1-60-40-98.2-40h-130.5v407.8h63.9
			V520.7h49.9l85.8,130.9h76.9l-92.8-142C2729.6,502.5,2744.6,492.5,2757.7,479.4z M2659.5,456.8H2593V307.6h66.6
			c20.4,0,37.9,6.9,52.4,21.5c14.7,14.5,22.1,31.8,22.1,52.3c0,20.4-7.4,38.4-22.1,52.9C2697.4,449,2680,456.8,2659.5,456.8z"/>
		<polygon points="3115.2,282 3137.6,410.8 3424,29.5 3177.4,287.1 3150.3,156.6 3063.6,243.7 3063.3,243.7 2998,307.8 
			2987.7,316.8 2987.7,316.8 2882.1,422.6 2882.1,243.7 2818.2,243.7 2818.2,651.5 2882.1,651.5 2882.1,514.1 2920.3,476.4 
			3060.7,651.5 3143.2,651.5 2966.8,430.4 		"/>
		<g>
			<path d="M3441.6,654.3V296.6l-64.4,48.3l-48.3-65.1l193.9-144.9v519.4H3441.6z"/>
			<path d="M3609.6,302.9c0-41.3,15.4-83.3,41.3-114.1c30.1-35,72.8-53.9,120.4-53.9c66.5,0,120.4,32.9,151.2,92.4
				c47.6,91.7,33.6,232.4-33.6,326.9c-24.5,35-53.9,60.9-88.2,78.4c-35,17.5-81.2,24.5-121.8,21v-81.9c28,3.5,62.3-0.7,85.4-11.9
				c22.4-11.2,42-28.7,58.1-52.5c14-19.6,24.5-42,32.9-65.8c-23.8,11.2-50.4,17.5-79.8,17.5c-65.1,0-103.6-26.6-124.6-48.3
				C3624.3,382.7,3609.6,344.2,3609.6,302.9z M3690.8,302.9c0,20.3,7,38.5,18.9,51.8c14.7,14.7,36.4,23.1,65.8,23.1
				c33.6,0,58.1-11.9,74.9-36.4c9.1-11.9,13.3-24.5,15.4-31.5c-3.5-16.1-8.4-31.5-15.4-44.8c-16.8-32.9-42.7-49-79.1-49
				c-30.1,0-48.3,14-58.8,25.9C3699.2,258.1,3690.8,280.5,3690.8,302.9z"/>
		</g>
	</g>
	<g>
		<path class="st0" d="M3638.4,362.7c-35.5-39-46.3-84.1-32.2-134.2c8.6-30.7,28.5-53.8,54.4-71.5c48.4-33,116.7-28.3,161.5,11.5
			c28.5,25.2,44,56.9,45.3,95.5c1.3,38.3-12.8,70.5-40.3,100.8c3.4,2,6.4,3.1,8.6,5.1c24.6,21.7,45.2,46.3,53.7,78.9
			c19.5,74.5-4.8,148.5-77.2,188.9c-86.1,48.1-198.9,10.6-232.1-89.4c-22.4-67.3-5.8-127.8,48.2-176.2
			C3631.4,369.5,3634.2,366.7,3638.4,362.7z M3639.4,496.7c0,52.2,41.5,93.8,93.8,93.9c51.3,0.1,93.7-42.4,94.6-93.2
			c1-51.5-44.1-96.2-93.5-96.2C3682.8,401.2,3639.4,445.1,3639.4,496.7z M3799.9,268c0-34.8-30.5-65.2-65.5-65.2
			c-35.5,0-66.3,30.5-66.2,65.6c0.1,35.6,30.7,64.7,68.7,65.2C3769.6,334,3800,302.4,3799.9,268z"/>
		<path class="st0" d="M3332.6,278c64.6-46.7,128.9-93.2,194.3-140.5c0.8,3.9,1.4,5.5,1.4,7.2c0,165.7-0.1,331.5-0.2,497.2
			c0,10-0.6,10.6-10.4,10.6c-16-0.1-32,0-48,0c-8.9,0-10.6-1.8-10.6-11.2c0-67.8,0-135.7,0-203.5c0-47.7,0.2-95.3,0.4-143
			c0-5.6-4.6-8.7-9.4-5.9c-14.4,8.7-28.7,17.6-43.1,26.4c-10.8,6.6-21.6,13.3-32.7,19.6c-1.3,0.8-4.9,0-5.7-1.1
			C3356.8,315.6,3345.1,297.4,3332.6,278z"/>
		<polygon class="st1" points="143,116.4 143,651.5 225.2,651.5 225.2,377.3 426,663.5 626.9,377.3 626.9,651.5 709.1,651.5 
			709.1,116.4 426,520.4 		"/>
		<rect x="763.9" y="243.7" class="st1" width="67" height="407.8"/>
		<polygon class="st1" points="1171.7,510.1 885.6,237.9 885.6,651.5 949.5,651.5 949.5,387.9 1235.6,660.1 1235.6,243.7 
			1171.7,243.7 		"/>
		<path class="st1" d="M1380.2,243.7h-111.1v407.8h111.1c56.3,0,104.5-20.1,144.7-60.3c40-40,60-88.1,60-144.4
			c0-56.3-20-103.8-60-143.8C1484.7,263.1,1436.5,243.7,1380.2,243.7z M1479.1,546.1c-27.4,27.4-60.4,41.5-99,41.5H1336v-280h44.1
			c38.6,0,71.5,13.4,99,40.8c27.4,27.4,41.2,60.3,41.2,98.7C1520.3,485.7,1506.6,518.7,1479.1,546.1z"/>
		<path class="st1" d="M1885.5,389.3c-18.3-14.4-52.1-27.5-101.3-39.1c-28.1-6.6-47.5-13.6-58-20.9c-17.6-11.9-26.4-30.2-26.4-54.9
			c0-20.6,7.3-38.2,22-52.9c14.6-14.6,32.3-22,52.9-22c14.2,0,27.2,3.7,39.1,11c11.9,7.3,21.1,17.3,27.5,29.9l73.5-37.1
			c-13.5-26.3-32.8-47.3-58-62.8c-25.2-15.6-52.5-23.3-82-23.3c-43.5,0-80.6,15.3-111.2,46c-30.7,30.7-46,67.7-46,111.2
			c0,53.8,15.4,92.7,46.3,116.7c18.3,14.4,52.1,27.5,101.3,39.1c28.1,6.6,47.5,13.6,58,20.9c17.4,11.9,26.1,30.2,26.1,54.9
			c0,18.8-7.9,35.6-23.7,50.5c-17.4,16-37.3,24-59.7,24c-19.5,0-37.5-6.2-54.2-18.5c-15.3-11.4-24.6-24.8-27.8-40.2l-80.7,17.2
			c7.6,35.5,27.3,65.1,59.4,88.9c31.1,23.3,65.6,35,103.3,35c43.9,0,82.5-15.3,115.7-46c33.6-31.1,50.5-68.1,50.5-110.9
			C1931.8,452.2,1916.4,413.3,1885.5,389.3z"/>
		<path class="st1" d="M2215,381.2c0-38.2-13.6-70.3-40.9-97.5c-27.1-27.1-59.7-40-97.9-40h-125.4v407.8h67V520.7h58.5
			c38.2,0,70.8-14,97.9-41.1C2201.4,452.5,2215,419.4,2215,381.2z M2128.7,432.7c-14.5,14.5-32,21.1-52.5,21.1h-58.5V307.6h58.5
			c20.4,0,37.9,6.9,52.5,21.5c14.5,14.5,21.8,31.5,21.8,51.9C2150.4,401.3,2143.2,418.1,2128.7,432.7z"/>
		<path class="st1" d="M2165.1,651.5h69.9l32.3-76.1h151.2l32.3,76.1h70.2l-178.1-417.7L2165.1,651.5z M2292.8,514.6l50-117.3
			l50,117.3H2292.8z"/>
		<path class="st1" d="M2757.7,479.4c27.3-27.1,40.9-59.8,40.9-98.2c0-38.2-13.6-70.3-40.9-97.5c-27.3-27.1-60-40-98.2-40h-130.5
			v407.8h63.9V520.7h49.9l85.8,130.9h76.9l-92.8-142C2729.6,502.5,2744.6,492.5,2757.7,479.4z M2659.5,456.8H2593V307.6h66.6
			c20.4,0,37.9,6.9,52.4,21.5c14.7,14.5,22.1,31.8,22.1,52.3c0,20.4-7.4,38.4-22.1,52.9C2697.4,449,2680,456.8,2659.5,456.8z"/>
		<polygon class="st1" points="3115.2,282 3137.6,410.8 3424,29.5 3177.4,287.1 3150.3,156.6 3063.6,243.7 3063.3,243.7 2998,307.8 
			2987.7,316.8 2987.7,316.8 2882.1,422.6 2882.1,243.7 2818.2,243.7 2818.2,651.5 2882.1,651.5 2882.1,514.1 2920.3,476.4 
			3060.7,651.5 3143.2,651.5 2966.8,430.4 		"/>
		<g>
			<path class="st1" d="M3441.6,654.3V296.6l-64.4,48.3l-48.3-65.1l193.9-144.9v519.4H3441.6z"/>
			<path class="st1" d="M3609.6,302.9c0-41.3,15.4-83.3,41.3-114.1c30.1-35,72.8-53.9,120.4-53.9c66.5,0,120.4,32.9,151.2,92.4
				c47.6,91.7,33.6,232.4-33.6,326.9c-24.5,35-53.9,60.9-88.2,78.4c-35,17.5-81.2,24.5-121.8,21v-81.9c28,3.5,62.3-0.7,85.4-11.9
				c22.4-11.2,42-28.7,58.1-52.5c14-19.6,24.5-42,32.9-65.8c-23.8,11.2-50.4,17.5-79.8,17.5c-65.1,0-103.6-26.6-124.6-48.3
				C3624.3,382.7,3609.6,344.2,3609.6,302.9z M3690.8,302.9c0,20.3,7,38.5,18.9,51.8c14.7,14.7,36.4,23.1,65.8,23.1
				c33.6,0,58.1-11.9,74.9-36.4c9.1-11.9,13.3-24.5,15.4-31.5c-3.5-16.1-8.4-31.5-15.4-44.8c-16.8-32.9-42.7-49-79.1-49
				c-30.1,0-48.3,14-58.8,25.9C3699.2,258.1,3690.8,280.5,3690.8,302.9z"/>
		</g>
	</g>
</g>
</svg>
